# xmcd
#
# Track frame offsets: 
#        150
#        18952
#        37847
#        53650
#        72505
#        99745
#        127017
#        145902
#        171757
#        191600
#        209430
#
# Disc length: 3064 seconds
#
# Revision: 0
# Processed by: cddbd v1.5.2PL0 Copyright (c) Steve Scherf et al.
# Submitted via: ExactAudioCopy v1.1
#
DISCID=9c0bf60b
DTITLE=山崎まさよし - HARVEST ~LIVE SEED FOLKS Special in 葛飾 2014~ [Disc 2]
DYEAR=2015
DGENRE=Pop
TTITLE0=中華料理
TTITLE1=アルタイルの涙
TTITLE2=コイン
TTITLE3=Flowers
TTITLE4=ドミノ
TTITLE5=晴男
TTITLE6=ア・リ・ガ・ト
TTITLE7=One more time, One more chance
TTITLE8=心の手紙
TTITLE9=Daydream Believer
TTITLE10=道
EXTD=
EXTT0=
EXTT1=
EXTT2=
EXTT3=
EXTT4=
EXTT5=
EXTT6=
EXTT7=
EXTT8=
EXTT9=
EXTT10=
PLAYORDER=
